<svg width="76" height="65" viewBox="0 0 76 65" fill="none" xmlns="http://www.w3.org/2000/svg">
<path d="M64.096 43.032L74.8 36.64C75.736 36.064 76.208 34.944 75.928 33.88C75.632 32.832 74.712 32.08 73.592 32.072L60.616 31.888C58.104 31.784 56.184 30.888 55.224 29.36C54.32 27.936 54.304 26.016 55.184 23.92L59.88 12.736C60.312 11.752 60.008 10.576 59.168 9.88799C58.344 9.20799 57.16 9.152 56.264 9.76L45.92 16.72C41.8 19.504 37.472 18.032 36.24 13.36L33.112 1.64C32.568 -0.440005 29.168 -0.576005 28.432 1.456L24.392 12.872C22.776 17.44 18.376 18.552 14.456 15.448L4.72 7.68C3.88 7.008 2.672 6.976 1.8 7.584C0.912005 8.2 0.520004 9.344 0.872004 10.368L4.648 21.896C4.944 22.8 5 23.616 4.992 24.408C9.688 25.08 14.088 26.712 18.056 29.064C21.456 26.928 25.496 25.752 29.8 25.92C41.152 26.384 49.968 35.976 49.52 47.304C49.408 50.016 48.752 52.568 47.696 54.904C50.912 57.432 53.672 60.504 55.728 64.064C56.784 63.592 58.032 63.304 59.64 63.408L72.28 64.232C73.408 64.216 74.392 63.64 74.76 62.6C75.128 61.576 74.768 60.424 73.872 59.8L63.704 52.544C61.704 51.12 60.64 49.392 60.704 47.656C60.784 45.936 61.968 44.304 64.096 43.032Z" fill="#C88C32"/>
</svg>
