<svg width="120" height="72" viewBox="0 0 120 72" fill="none" xmlns="http://www.w3.org/2000/svg">
<path fill-rule="evenodd" clip-rule="evenodd" d="M96 24C95.856 24 95.736 24.04 95.6 24.04C93.664 10.48 82.104 0 68 0C52.536 0 40 12.536 40 28C40 30.208 38.208 32 36 32C33.792 32 32 30.208 32 28C32 24.048 32.8 20.304 33.984 16.736C32.056 16.296 30.072 16 28 16C12.536 16 0 28.536 0 44.008C0 59.472 12.536 72.008 28 72.008H96C109.248 72.008 120 61.248 120 48.008C120 34.76 109.248 24 96 24Z" fill="#BEBDBD"/>
</svg>
